<svg height="24" viewBox="0 0 24 24" width="24" xmlns="http://www.w3.org/2000/svg"><path d="m52 12a12 12 0 1 1 -12-12 1 1 0 0 1 0 2 10 10 0 1 0 10 10 1 1 0 0 1 2 0zm-12-6a1 1 0 0 0 0-2 8 8 0 1 0 8 8 1 1 0 0 0 -2 0 6 6 0 1 1 -6-6zm1.3 7.506a2.007 2.007 0 0 1 -.19.155 2.194 2.194 0 0 1 -.2.107c-.05.026-.1.056-.149.078a1.841 1.841 0 0 1 -.226.07c-.05.014-.1.034-.149.044a1.941 1.941 0 0 1 -.784 0c-.051-.01-.1-.03-.149-.044a1.841 1.841 0 0 1 -.226-.07c-.052-.022-.1-.052-.149-.078a2.194 2.194 0 0 1 -.2-.107 2.007 2.007 0 0 1 -.19-.155c-.036-.032-.077-.057-.112-.092s-.062-.078-.095-.116a1.954 1.954 0 0 1 -.152-.186 2.122 2.122 0 0 1 -.108-.2c-.025-.049-.055-.1-.077-.146a1.969 1.969 0 0 1 -.07-.226c-.014-.05-.034-.1-.044-.149a1.989 1.989 0 0 1 0-.784c.01-.052.03-.1.044-.149a1.969 1.969 0 0 1 .07-.226c.022-.051.052-.1.077-.146a2.122 2.122 0 0 1 .108-.2 1.954 1.954 0 0 1 .152-.186c.033-.038.059-.08.095-.116l2.2-2.184a.981.981 0 0 0 -.776-.4 4 4 0 1 0 4 4 .981.981 0 0 0 -.4-.776l-2.19 2.19c-.031.035-.072.06-.11.092zm.7-8.506a1.012 1.012 0 0 1 .294-.708l4-4a1 1 0 0 1 1.706.708v1.586l.293-.293a1 1 0 0 1 1.414 1.414l-.293.293h1.586a1.01 1.01 0 0 1 .382.077 1 1 0 0 1 .324 1.631l-4 4a1.012 1.012 0 0 1 -.706.292h-3.586l-2.707 2.707a1 1 0 0 1 -1.414-1.414l2.707-2.707zm6.586 1h-1.172l-2 2h1.172zm-2.586-2.586-2 2v1.172l2-2z" transform="translate(-28)"/></svg>